:SAMPLES-PER-SECOND 30
:FULLY-SPECIFIED
:DEGREES
309
root  2.73401 33.2002 8.67302 176.089 84.7414 -167.699
RightUpLeg  -28.0119 -7.55132 -1.28162
RightLeg  57.2507 -0.260419 -0.892762
RightFoot  -11.3397 -0.0770673 -3.5496
RightToes  3.49245e-010 0 -3.6325e-017
Spine  67.7668 -3.28629 6.23481
Spine1  1.75524 0.370993 2.36959
HEad  -39.3811 -5.56072 -3.42785
LeftShoulder1  0.984026 -0.640176 -17.0228
LeftArm  -23.6408 -25.6887 -38.2714
LeftForeArm  33.9965 -76.838 -57.3757
LeftHand  -0.216302 1.05601 5.72905
RightShoulder  0.230199 -2.46688 15.8921
RightArm  -29.1509 18.0334 41.3137
RightForeArm  84.4417 77.042 117.634
RightHand  -0.334395 0.99145 -6.20062
LeftUpLeg  -31.478 10.8226 8.61682
LeftLeg  56.1278 -3.94224 -5.80202
LeftFoot  -10.4302 0.0823218 -3.50619
LeftToes  -2.21735e-009 9.83027e-011 -4.04511e-011
310
root  2.78851 32.6412 8.57878 178.079 86.3373 -163.994
RightUpLeg  -28.0411 -6.92058 -1.28094
RightLeg  60.3429 0.0909785 -0.332305
RightFoot  -12.6403 -0.129827 -3.93276
RightToes  3.49245e-010 0 -3.6325e-017
Spine  73.1053 -2.20811 5.07253
Spine1  2.23768 0.96518 2.98419
HEad  -41.5192 -4.87742 -3.81475
LeftShoulder1  0.889749 -0.378766 -16.1701
LeftArm  -26.3266 -27.7691 -36.835
LeftForeArm  34.3787 -76.9748 -58.6768
LeftHand  -0.200436 1.51575 5.85581
RightShoulder  0.282864 -2.06732 12.9779
RightArm  -31.3282 20.5668 41.8082
RightForeArm  83.8792 76.8124 118.913
RightHand  -0.428517 0.942531 -7.97848
LeftUpLeg  -29.6115 11.0187 9.15555
LeftLeg  55.3643 -3.70046 -5.22709
LeftFoot  -7.75686 0.0894926 -1.10294
LeftToes  -2.21735e-009 9.83027e-011 -4.04511e-011
311
root  2.83834 31.902 8.45161 160.546 88.1049 -179.301
RightUpLeg  -28.1028 -5.90405 -1.80269
RightLeg  64.4201 0.438157 0.383092
RightFoot  -14.2706 -0.200669 -4.07973
RightToes  3.49245e-010 0 -3.6325e-017
Spine  78.9692 -0.884284 3.76903
Spine1  1.20982 1.66246 2.96204
HEad  -42.3364 -4.42439 -3.92756
LeftShoulder1  0.964046 -1.00863 -14.4832
LeftArm  -28.9827 -28.0219 -35.1765
LeftForeArm  34.4897 -77.0979 -60.0819
LeftHand  -0.231438 1.28527 6.42446
RightShoulder  0.36998 -1.45302 10.9289
RightArm  -33.1738 21.7508 41.0004
RightForeArm  85.1419 76.5697 120.654
RightHand  -0.43137 1.08009 -7.8666
LeftUpLeg  -29.3849 12.3652 9.45166
LeftLeg  60.0964 -2.82021 -4.74522
LeftFoot  -9.11019 0.0252271 1.2357
LeftToes  -2.21735e-009 9.83027e-011 -4.04511e-011
312
root  2.88211 31.0516 8.35837 81.6507 89.1029 104.326
RightUpLeg  -28.3089 -3.75628 -2.55721
RightLeg  69.0088 0.470043 0.578076
RightFoot  -15.9457 -0.280628 -4.28519
RightToes  3.49245e-010 0 -3.6325e-017
Spine  84.2958 0.859594 2.26453
Spine1  0.562255 2.47782 2.06981
HEad  -42.8116 -4.54139 -3.549
LeftShoulder1  1.00168 -1.70367 -12.1181
LeftArm  -31.5703 -28.1369 -33.986
LeftForeArm  35.3933 -77.2878 -62.0564
LeftHand  -0.271253 1.14201 7.35602
RightShoulder  0.430095 -0.988304 9.87868
RightArm  -34.8681 23.0347 39.4065
RightForeArm  85.076 76.4066 121.532
RightHand  -0.432657 0.825981 -8.18729
LeftUpLeg  -28.3742 13.4429 9.93583
LeftLeg  64.3229 -2.33312 -4.61054
LeftFoot  -11.1827 0.0700561 0.30311
LeftToes  -2.21735e-009 9.83027e-011 -4.04511e-011
313
root  2.93991 30.1137 8.19361 41.3027 87.8873 67.6145
RightUpLeg  -27.2429 -2.44002 -3.57435
RightLeg  73.7713 0.43515 0.65416
RightFoot  -17.7346 -0.372237 -4.52853
RightToes  3.49245e-010 0 -3.6325e-017
Spine  89.3877 1.38239 1.54136
Spine1  1.41059 2.66334 1.26822
HEad  -43.7068 -4.41779 -3.91169
LeftShoulder1  0.989516 -2.22944 -9.93523
LeftArm  -34.5875 -28.6728 -32.8212
LeftForeArm  36.5048 -77.4704 -64.1082
LeftHand  -0.239941 1.74223 7.46743
RightShoulder  0.414335 -0.819285 7.97717
RightArm  -37.0491 23.9251 39.2091
RightForeArm  87.3328 76.0458 123.926
RightHand  -0.434126 0.908521 -8.12132
LeftUpLeg  -26.7455 13.038 10.0308
LeftLeg  68.8503 -1.55738 -3.65082
LeftFoot  -13.0122 0.0885313 0.880489
LeftToes  -2.21735e-009 9.83027e-011 -4.04511e-011
314
root  2.8252 29.0653 7.88219 119.778 88.6643 154.975
RightUpLeg  -19.5106 -4.51309 -5.00064
RightLeg  77.657 0.461776 1.01417
RightFoot  -20.0615 -0.461163 -4.27007
RightToes  3.49245e-010 0 -3.6325e-017
Spine  99.0215 -2.52914 3.02727
Spine1  1.74712 1.24433 1.37065
HEad  -44.7555 -4.52865 -3.79146
LeftShoulder1  0.964993 -2.65854 -8.13872
LeftArm  -37.0448 -29.091 -31.9724
LeftForeArm  37.5584 -77.6129 -65.8236
LeftHand  -0.221251 1.87596 7.13974
RightShoulder  0.401828 -0.706929 6.76869
RightArm  -39.0922 24.5374 37.833
RightForeArm  85.7826 75.8991 124.318
RightHand  -0.474759 1.58755 -8.05339
LeftUpLeg  -20.9415 7.68554 10.7135
LeftLeg  73.4712 -1.00008 -2.7731
LeftFoot  -15.1235 0.104882 0.396554
LeftToes  -2.21735e-009 9.83027e-011 -4.04511e-011
315
root  2.75603 28.1189 7.57994 157.09 87.1497 -155.572
RightUpLeg  -7.4521 -4.90866 -6.74673
RightLeg  80.1759 0.468532 1.33628
RightFoot  -22.1684 -0.520161 -3.90187
RightToes  3.49245e-010 0 -3.6325e-017
Spine  110.772 -6.0437 3.35229
Spine1  3.02566 0.0897699 1.22138
HEad  -45.6896 -4.45459 -3.66544
LeftShoulder1  0.89895 -2.77096 -6.65162
LeftArm  -39.6067 -29.623 -31.0101
LeftForeArm  37.4079 -77.606 -65.8175
LeftHand  -0.215898 1.31694 6.02644
RightShoulder  0.394268 -0.441944 5.10652
RightArm  -41.0346 24.6467 37.022
RightForeArm  87.4317 75.4796 126.607
RightHand  -0.447808 1.22659 -7.99396
LeftUpLeg  -10.57 2.66181 11.0592
LeftLeg  76.8425 -0.595102 -1.63954
LeftFoot  -17.1513 0.130919 0.558849
LeftToes  -2.21735e-009 9.83027e-011 -4.04511e-011
316
root  2.86801 27.179 7.38627 171.53 88.1386 -131.589
RightUpLeg  1.28122 -2.80486 -6.15541
RightLeg  82.721 0.406056 1.32836
RightFoot  -23.9627 -0.533985 -3.36616
RightToes  3.49245e-010 0 -3.6325e-017
Spine  120.093 -5.78155 2.86847
Spine1  4.23119 0.937759 1.41058
HEad  -45.7697 -4.41005 -4.37105
LeftShoulder1  0.946359 -3.15419 -6.53504
LeftArm  -41.7153 -29.9153 -29.178
LeftForeArm  36.1748 -77.5611 -65.9466
LeftHand  -0.240707 1.28548 6.71449
RightShoulder  0.407195 0.040881 3.4653
RightArm  -42.7385 24.4708 35.5164
RightForeArm  87.3069 75.2531 127.577
RightHand  -0.476071 1.71718 -7.92934
LeftUpLeg  -1.89009 0.951231 12.5622
LeftLeg  80.0407 -0.434989 -1.18342
LeftFoot  -19.441 0.172618 0.775795
LeftToes  -2.21735e-009 9.83027e-011 -4.04511e-011
317
root  3.00171 26.002 7.16047 176.94 87.4952 -109.499
RightUpLeg  18.155 -1.09829 -6.00254
RightLeg  84.0791 0.387274 1.45845
RightFoot  -25.576 -0.468127 -2.35866
RightToes  3.49245e-010 0 -3.6325e-017
Spine  135.073 -8.7376 1.80212
Spine1  5.4941 -0.416883 0.913445
HEad  -45.8027 -4.83747 -5.00361
LeftShoulder1  0.962003 -3.64734 -5.68121
LeftArm  -43.0862 -29.8518 -28.8169
LeftForeArm  36.7625 -77.634 -66.8988
LeftHand  -0.231606 1.27006 6.44404
RightShoulder  0.386137 0.00211392 2.91794
RightArm  -44.0773 24.5837 32.5993
RightForeArm  84.7239 75.3365 126.751
RightHand  -0.543541 2.18966 -8.53067
LeftUpLeg  14.1065 -3.35317 12.4508
LeftLeg  82.3459 -0.366304 -0.955136
LeftFoot  -21.3556 0.238675 1.27228
LeftToes  -2.21735e-009 9.83027e-011 -4.04511e-011
318
root  3.39583 23.9188 7.07709 161.673 84.6228 -93.1099
RightUpLeg  50.4157 -0.241772 -4.68382
RightLeg  84.8954 0.319581 0.569453
RightFoot  -26.6109 -0.314647 -1.00421
RightToes  3.49245e-010 0 -3.6325e-017
Spine  163.27 7.59239 2.8607
Spine1  17.417 17.9036 10.4969
HEad  -46.1093 -5.19571 -4.87212
LeftShoulder1  0.953413 -3.9238 -4.96258
LeftArm  -44.3203 -30.0804 -28.2927
LeftForeArm  36.8582 -77.6695 -67.5602
LeftHand  -0.217423 1.71642 6.72094
RightShoulder  0.327897 -0.275884 2.028
RightArm  -45.3363 24.6453 30.8458
RightForeArm  83.5671 75.2736 126.833
RightHand  -0.534805 1.29352 -9.40629
LeftUpLeg  44.4011 -12.0723 8.47714
LeftLeg  84.8964 -0.287355 -0.236823
LeftFoot  -23.1076 0.278162 1.34915
LeftToes  -2.21735e-009 9.83027e-011 -4.04511e-011
319
root  4.23665 22.1829 6.77614 125.912 84.7918 -104.971
RightUpLeg  73.4136 3.1616 -3.666
RightLeg  87.1119 0.296311 -0.0712704
RightFoot  -27.7824 -0.140984 0.33045
RightToes  3.49245e-010 0 -3.6325e-017
Spine  -169.873 60.0346 7.01576
Spine1  37.5426 67.4099 28.848
HEad  -46.7049 -4.78727 -4.44294
LeftShoulder1  0.840721 -3.47602 -4.10732
LeftArm  -46.0825 -30.3998 -26.7462
LeftForeArm  35.1051 -77.5287 -66.1602
LeftHand  -0.222951 1.09996 5.94617
RightShoulder  0.35 0.37219 0.642036
RightArm  -46.6418 25.1633 30.1637
RightForeArm  79.1058 75.4382 125.289
RightHand  -0.629147 1.81935 -10.3102
LeftUpLeg  68.0639 -12.361 1.53839
LeftLeg  87.2686 -0.252495 1.42028
LeftFoot  -24.12 0.339041 1.7355
LeftToes  -2.21735e-009 9.83027e-011 -4.04511e-011
320
root  4.58183 21.2581 6.53587 118.027 84.327 -107.001
RightUpLeg  77.8536 3.78891 -2.8108
RightLeg  89.9427 0.310651 -0.366931
RightFoot  -28.9213 -0.0296341 1.08107
RightToes  3.49245e-010 0 -3.6325e-017
Spine  -170.247 4.38267 -1.9836
Spine1  11.9229 13.3943 3.29098
HEad  -46.5629 -5.35349 -4.7153
LeftShoulder1  0.897454 -4.41563 -3.2787
LeftArm  -46.8024 -30.374 -26.9344
LeftForeArm  33.5289 -77.3558 -64.2923
LeftHand  -0.228554 1.31134 6.3913
RightShoulder  0.348472 0.426674 0.487787
RightArm  -47.8663 25.1237 27.3582
RightForeArm  74.0118 75.9256 121.919
RightHand  -0.711069 2.86712 -10.2007
LeftUpLeg  72.2651 -11.5306 -0.402213
LeftLeg  90.4804 -0.372925 2.46286
LeftFoot  -25.1691 0.387359 1.94407
LeftToes  -2.21735e-009 9.83027e-011 -4.04511e-011
321
root  4.5018 21.1523 6.22354 126.033 83.5566 -104.216
RightUpLeg  72.1847 3.63047 -3.19702
RightLeg  91.15 0.303945 -0.0423629
RightFoot  -29.5548 0.0397142 1.5035
RightToes  3.49245e-010 0 -3.6325e-017
Spine  -172.676 18.5086 -0.586857
Spine1  13.6197 28.4363 6.32243
HEad  -46.9354 -5.54066 -4.66548
LeftShoulder1  0.910999 -4.92869 -2.68425
LeftArm  -48.0319 -30.7775 -26.4103
LeftForeArm  30.597 -77.073 -61.9435
LeftHand  -0.21376 1.19127 5.81823
RightShoulder  0.348678 0.735953 -0.261846
RightArm  -49.1845 24.9902 26.13
RightForeArm  71.244 76.1023 120.398
RightHand  -0.759878 2.94941 -10.778
LeftUpLeg  66.1578 -11.2871 0.124709
LeftLeg  92.3885 -0.545251 3.46348
LeftFoot  -26.0843 0.444989 2.2336
LeftToes  -2.21735e-009 9.83027e-011 -4.04511e-011
322
root  4.79239 20.8278 5.96294 135.565 82.3667 -96.2983
RightUpLeg  70.4595 2.6418 -3.21703
RightLeg  92.6991 0.315937 -0.127747
RightFoot  -30.4975 0.031852 1.41678
RightToes  3.49245e-010 0 -3.6325e-017
Spine  -173.636 20.2668 -1.06743
Spine1  13.4408 31.6704 6.06242
HEad  -47.5902 -5.81552 -4.27045
LeftShoulder1  0.912391 -5.33878 -2.13432
LeftArm  -49.2463 -31.4503 -25.6549
LeftForeArm  28.3837 -76.7962 -59.713
LeftHand  -0.248195 0.553265 5.94431
RightShoulder  0.337548 0.815034 -0.725055
RightArm  -50.1319 24.9515 25.6759
RightForeArm  70.0032 76.178 119.711
RightHand  -0.826803 3.3515 -11.1977
LeftUpLeg  64.0326 -11.9609 -0.434954
LeftLeg  94.9315 -0.821354 4.47646
LeftFoot  -27.994 0.431156 1.79502
LeftToes  -2.21735e-009 9.83027e-011 -4.04511e-011
323
root  5.19519 20.5486 5.89406 134.404 83.2393 -94.6013
RightUpLeg  73.3879 3.04944 -1.81927
RightLeg  93.8286 0.376133 -0.675724
RightFoot  -31.6098 0.0907676 1.70831
RightToes  3.49245e-010 0 -3.6325e-017
Spine  -172.284 8.22343 -1.94222
Spine1  12.5071 18.6412 4.36078
HEad  -48.8036 -5.93724 -4.20925
LeftShoulder1  0.903562 -5.49334 -1.82041
LeftArm  -50.6689 -32.5503 -24.7933
LeftForeArm  26.1752 -76.4795 -57.3846
LeftHand  -0.248733 0.954165 6.49211
RightShoulder  0.31777 0.878774 -1.37845
RightArm  -51.5534 24.6153 25.239
RightForeArm  69.877 76.2058 119.517
RightHand  -0.788513 3.036 -11.07
LeftUpLeg  67.3807 -11.4663 -0.3514
LeftLeg  95.6924 -0.916255 4.68783
LeftFoot  -29.1473 0.401936 1.4419
LeftToes  -2.21735e-009 9.83027e-011 -4.04511e-011
